<svg width="60" height="60" viewBox="0 0 60 60" fill="none" xmlns="http://www.w3.org/2000/svg">
<g clip-path="url(#clip0_5_227)">
<path d="M59.8266 26.7798L53.8554 29.91V30C53.8554 43.1748 43.1748 53.8554 30 53.8554C16.8252 53.8554 6.1446 43.1748 6.1446 30C6.1446 16.8252 16.8252 6.1446 30 6.1446C36.1842 6.1446 41.8194 8.5014 46.0626 12.3648L51.7806 9.3684C46.3122 3.6 38.577 0 30 0C13.4316 0 0 13.4316 0 30C0 46.5684 13.4316 60 30 60C46.5684 60 60 46.5684 60 30C60 28.9122 59.9424 27.8388 59.8266 26.7798Z" fill="#017EFC"/>
<path d="M30 12.2892C20.2194 12.2892 12.2892 20.2194 12.2892 30C12.2892 39.7806 20.2194 47.7108 30 47.7108C39.7806 47.7108 47.7108 39.7806 47.7108 30C47.7108 20.2194 39.7806 12.2892 30 12.2892ZM30 41.928C23.4108 41.928 18.072 36.5892 18.072 30C18.072 23.4108 23.4108 18.072 30 18.072C36.5892 18.072 41.928 23.4108 41.928 30C41.928 36.5892 36.5892 41.928 30 41.928Z" fill="#017EFC"/>
<path d="M53.8554 24.2172C56.6502 24.2172 58.9158 21.9516 58.9158 19.1568C58.9158 16.362 56.6502 14.0964 53.8554 14.0964C51.0606 14.0964 48.795 16.362 48.795 19.1568C48.795 21.9516 51.0606 24.2172 53.8554 24.2172Z" fill="#017EFC"/>
</g>
<defs>
<clipPath id="clip0_5_227">
<rect width="60" height="60" fill="white"/>
</clipPath>
</defs>
</svg>
