<svg width="36" height="36" viewBox="0 0 36 36" fill="none" xmlns="http://www.w3.org/2000/svg">
<path d="M10.81 36C9.81907 36 8.97109 35.6478 8.26604 34.9434C7.55978 34.2378 7.20666 33.39 7.20666 32.4C7.20666 31.41 7.55978 30.5622 8.26604 29.8566C8.97109 29.1522 9.81907 28.8 10.81 28.8C11.8009 28.8 12.6489 29.1522 13.3539 29.8566C14.0602 30.5622 14.4133 31.41 14.4133 32.4C14.4133 33.39 14.0602 34.2378 13.3539 34.9434C12.6489 35.6478 11.8009 36 10.81 36ZM28.8266 36C27.8357 36 26.9877 35.6478 26.2827 34.9434C25.5764 34.2378 25.2233 33.39 25.2233 32.4C25.2233 31.41 25.5764 30.5622 26.2827 29.8566C26.9877 29.1522 27.8357 28.8 28.8266 28.8C29.8175 28.8 30.6661 29.1522 31.3724 29.8566C32.0774 30.5622 32.43 31.41 32.43 32.4C32.43 33.39 32.0774 34.2378 31.3724 34.9434C30.6661 35.6478 29.8175 36 28.8266 36ZM9.27857 7.2L13.6026 16.2H26.2142L31.1688 7.2H9.27857ZM7.56699 3.6H34.1415C34.8322 3.6 35.3577 3.9072 35.718 4.5216C36.0783 5.1372 36.0933 5.76 35.763 6.39L29.3671 17.91C29.0368 18.51 28.5936 18.975 28.0375 19.305C27.4826 19.635 26.8748 19.8 26.2142 19.8H12.7918L10.81 23.4H32.43V27H10.81C9.45874 27 8.4378 26.4072 7.74716 25.2216C7.05652 24.0372 7.02649 22.86 7.65707 21.69L10.0893 17.28L3.60333 3.6H0V0H5.85541L7.56699 3.6ZM13.6026 16.2H26.2142H13.6026Z" fill="#888888"/>
</svg>
