<svg width="41" height="37" viewBox="0 0 41 37" fill="none" xmlns="http://www.w3.org/2000/svg">
<path d="M15.2325 0.457929C11.8462 0.440012 8.54957 3.70085 10.0546 7.75001H4.37499C3.42463 7.75001 2.5132 8.12754 1.84119 8.79955C1.16919 9.47155 0.791656 10.383 0.791656 11.3333V14.9167C0.791656 15.3919 0.980421 15.8476 1.31642 16.1836C1.65243 16.5196 2.10814 16.7083 2.58332 16.7083H18.7083V11.3333H22.2917V16.7083H38.4167C38.8918 16.7083 39.3476 16.5196 39.6836 16.1836C40.0196 15.8476 40.2083 15.3919 40.2083 14.9167V11.3333C40.2083 10.383 39.8308 9.47155 39.1588 8.79955C38.4868 8.12754 37.5754 7.75001 36.625 7.75001H30.9454C33.0417 1.89126 25.1583 -2.24749 21.5212 2.80501L20.5 4.16668L19.4787 2.76918C18.35 1.1746 16.7912 0.475845 15.2325 0.457929ZM15.125 4.16668C16.7196 4.16668 17.5258 6.10168 16.3971 7.23043C15.2683 8.35918 13.3333 7.55293 13.3333 5.95835C13.3333 5.48317 13.5221 5.02745 13.8581 4.69145C14.1941 4.35544 14.6498 4.16668 15.125 4.16668ZM25.875 4.16668C27.4696 4.16668 28.2758 6.10168 27.1471 7.23043C26.0183 8.35918 24.0833 7.55293 24.0833 5.95835C24.0833 5.48317 24.2721 5.02745 24.6081 4.69145C24.9441 4.35544 25.3998 4.16668 25.875 4.16668ZM2.58332 18.5V32.8333C2.58332 33.7837 2.96085 34.6951 3.63286 35.3671C4.30486 36.0392 5.2163 36.4167 6.16666 36.4167H34.8333C35.7837 36.4167 36.6951 36.0392 37.3671 35.3671C38.0391 34.6951 38.4167 33.7837 38.4167 32.8333V18.5H22.2917V32.8333H18.7083V18.5H2.58332Z" fill="#888888"/>
</svg>
